<svg xmlns="http://www.w3.org/2000/svg" width="15" height="15" viewBox="0 0 15 15"><defs><style>.a{fill:#2c3d51;}</style></defs><path class="a" d="M7.5,0A7.5,7.5,0,1,0,15,7.5,7.5,7.5,0,0,0,7.5,0Zm3.424,5.848q0,.111,0,.222a4.865,4.865,0,0,1-4.9,4.9h0a4.873,4.873,0,0,1-2.639-.773,3.5,3.5,0,0,0,.411.024,3.454,3.454,0,0,0,2.138-.737,1.723,1.723,0,0,1-1.608-1.2,1.716,1.716,0,0,0,.778-.03A1.722,1.722,0,0,1,3.73,6.569c0-.008,0-.015,0-.022a1.71,1.71,0,0,0,.78.215,1.723,1.723,0,0,1-.533-2.3,4.887,4.887,0,0,0,3.548,1.8,1.722,1.722,0,0,1,2.933-1.57,3.453,3.453,0,0,0,1.093-.418,1.728,1.728,0,0,1-.757.952,3.433,3.433,0,0,0,.989-.271,3.5,3.5,0,0,1-.859.891Zm0,0"/></svg>